/* XPM */
static const char * hide_xpm[] = {
"32 32 438 2",
"  	c None",
". 	c #AFAFB9",
"+ 	c #EFEFF2",
"@ 	c #C1C1CB",
"# 	c #A4A4AE",
"$ 	c #FFFFFF",
"% 	c #B1B1BA",
"& 	c #E8E8ED",
"* 	c #B7B7C1",
"= 	c #A7A7B0",
"- 	c #84848F",
"; 	c #FCFCFD",
"> 	c #FEFEFE",
", 	c #F2F2F5",
"' 	c #94949C",
") 	c #B6B6BF",
"! 	c #CECED5",
"~ 	c #D7E6D9",
"{ 	c #A1E293",
"] 	c #7FD76C",
"^ 	c #8ADC76",
"/ 	c #9DE68A",
"( 	c #A9EB94",
"_ 	c #A8E896",
": 	c #9BDF88",
"< 	c #A4E18D",
"[ 	c #C6ECB9",
"} 	c #D0D0D8",
"| 	c #FAFAFC",
"1 	c #F6F6F8",
"2 	c #AEE4A4",
"3 	c #63D14F",
"4 	c #93E57E",
"5 	c #ADEF91",
"6 	c #ABEF88",
"7 	c #AEF288",
"8 	c #B2F48B",
"9 	c #B8F68F",
"0 	c #C3F99E",
"a 	c #BBF59B",
"b 	c #8FE472",
"c 	c #58BD36",
"d 	c #B1E79C",
"e 	c #9A9AA4",
"f 	c #F7F7F9",
"g 	c #E2EFE2",
"h 	c #66C758",
"i 	c #6FD65F",
"j 	c #89E173",
"k 	c #89E26F",
"l 	c #8CE472",
"m 	c #91E675",
"n 	c #96E779",
"o 	c #9BE97B",
"p 	c #9FEB7F",
"q 	c #A4ED82",
"r 	c #A9EF85",
"s 	c #AEF388",
"t 	c #A8EE8B",
"u 	c #7AD85B",
"v 	c #5FC632",
"w 	c #8AE16D",
"x 	c #8CE36C",
"y 	c #ADADB6",
"z 	c #B8B8C1",
"A 	c #A1A1AA",
"B 	c #EBEBEF",
"C 	c #F4F4F6",
"D 	c #EEF2F0",
"E 	c #49B43B",
"F 	c #6ED560",
"G 	c #6BD65A",
"H 	c #6FD75D",
"I 	c #73D960",
"J 	c #77DB63",
"K 	c #7BDC66",
"L 	c #80DF69",
"M 	c #84E06C",
"N 	c #A5EB86",
"O 	c #8AE071",
"P 	c #87DF6E",
"Q 	c #B0F38A",
"R 	c #82DE62",
"S 	c #DCDCE3",
"T 	c #EFEFF3",
"U 	c #D8D8E0",
"V 	c #B5B5BD",
"W 	c #F1F1F4",
"X 	c #72BB6A",
"Y 	c #55C54C",
"Z 	c #54CD4A",
"` 	c #58CE4C",
" .	c #5CCF4F",
"..	c #5FD152",
"+.	c #5AD04F",
"@.	c #39C633",
"#.	c #23BF1F",
"$.	c #1CBD1A",
"%.	c #2AC125",
"&.	c #46CB3C",
"*.	c #6ED85B",
"=.	c #84DF6B",
"-.	c #88E16E",
";.	c #8DE371",
">.	c #90E474",
",.	c #94E676",
"'.	c #98E87A",
").	c #77DA5B",
"!.	c #A8A8B3",
"~.	c #EDEDF1",
"{.	c #B7D6B6",
"].	c #41AF38",
"^.	c #40C63A",
"/.	c #43C73C",
"(.	c #46C73F",
"_.	c #4DCA45",
":.	c #2EC22A",
"<.	c #02B402",
"[.	c #13B40E",
"}.	c #21B117",
"|.	c #2BB420",
"1.	c #20B618",
"2.	c #16B80D",
"3.	c #1CBA10",
"4.	c #4DCB3C",
"5.	c #79D962",
"6.	c #7DDB65",
"7.	c #80DD68",
"8.	c #82DE6A",
"9.	c #86E06C",
"0.	c #71D756",
"a.	c #91919D",
"b.	c #E0E0E7",
"c.	c #EAEAEF",
"d.	c #378F30",
"e.	c #37C034",
"f.	c #2FC02D",
"g.	c #33C12F",
"h.	c #39C435",
"i.	c #19BC18",
"j.	c #0AB409",
"k.	c #239118",
"l.	c #266A18",
"m.	c #2F5C27",
"n.	c #32522C",
"o.	c #34662C",
"p.	c #378E23",
"q.	c #33B721",
"r.	c #2BBC17",
"s.	c #42C42D",
"t.	c #70D55B",
"u.	c #72D65C",
"v.	c #75D75F",
"w.	c #76D860",
"x.	c #6AD452",
"y.	c #55555D",
"z.	c #E2E2E9",
"A.	c #E6E6EC",
"B.	c #C8D4CE",
"C.	c #2C9B24",
"D.	c #20BB1F",
"E.	c #22BC21",
"F.	c #25BC23",
"G.	c #22BD21",
"H.	c #06B505",
"I.	c #27981A",
"J.	c #3F3F42",
"K.	c #464B4C",
"L.	c #42912B",
"M.	c #3CBF22",
"N.	c #38BF1E",
"O.	c #53C83C",
"P.	c #68D053",
"Q.	c #68D155",
"R.	c #69D155",
"S.	c #64D14B",
"T.	c #878791",
"U.	c #E3E3EA",
"V.	c #749E77",
"W.	c #2CA726",
"X.	c #19B519",
"Y.	c #18B719",
"Z.	c #1BBA1B",
"`.	c #03B503",
" +	c #24AD18",
".+	c #407B35",
"++	c #4BBF2E",
"@+	c #47C327",
"#+	c #51C535",
"$+	c #5ECB46",
"%+	c #60CC4B",
"&+	c #5ECD4B",
"*+	c #5DCC4C",
"=+	c #5BCB41",
"-+	c #ACACB7",
";+	c #DFDFE6",
">+	c #559055",
",+	c #2FAB2A",
"'+	c #18AF19",
")+	c #0AB60B",
"!+	c #0CB60C",
"~+	c #00B400",
"{+	c #30AF1D",
"]+	c #55CB34",
"^+	c #5EC839",
"/+	c #62C842",
"(+	c #62CA44",
"_+	c #5ECA43",
":+	c #56C83C",
"<+	c #46C42E",
"[+	c #36C220",
"}+	c #49C02B",
"|+	c #BABAC3",
"1+	c #BBBBC4",
"2+	c #CECED9",
"3+	c #DCDCE5",
"4+	c #D4D4DC",
"5+	c #559750",
"6+	c #28AC29",
"7+	c #0FAF0F",
"8+	c #01B501",
"9+	c #13BB0D",
"0+	c #25A215",
"a+	c #51AA3A",
"b+	c #4F963D",
"c+	c #549841",
"d+	c #61A44F",
"e+	c #65A554",
"f+	c #69A657",
"g+	c #6DAA5B",
"h+	c #73B25F",
"i+	c #8BB481",
"j+	c #BCBCCC",
"k+	c #CACAD7",
"l+	c #D2D2DD",
"m+	c #D8D8E2",
"n+	c #D9D9E2",
"o+	c #D0D0D7",
"p+	c #649964",
"q+	c #3EAB3B",
"r+	c #07B207",
"s+	c #808085",
"t+	c #93939C",
"u+	c #BDBEC3",
"v+	c #CCCDD5",
"w+	c #D3D3DB",
"x+	c #D7D7E1",
"y+	c #A5A5BB",
"z+	c #A6A6BC",
"A+	c #ADADC2",
"B+	c #B4B4C6",
"C+	c #C4C4CF",
"D+	c #82A587",
"E+	c #5BA954",
"F+	c #0BB10B",
"G+	c #A4A4A9",
"H+	c #B1B3BA",
"I+	c #C2C4CC",
"J+	c #B3B4C5",
"K+	c #ADADC1",
"L+	c #A6A6BB",
"M+	c #6C6C79",
"N+	c #696976",
"O+	c #6A6A79",
"P+	c #9A9AAF",
"Q+	c #A7A7BD",
"R+	c #B1B1C3",
"S+	c #B0BFB5",
"T+	c #73AC6E",
"U+	c #33AE33",
"V+	c #B3B4BA",
"W+	c #C3C6C9",
"X+	c #AEB1BF",
"Y+	c #A4A5BA",
"Z+	c #787888",
"`+	c #D9DBDF",
" @	c #8EB789",
".@	c #62B163",
"+@	c #ADAEAF",
"@@	c #C5C7CC",
"#@	c #D7DADB",
"$@	c #A7AABC",
"%@	c #5C5C69",
"&@	c #A8A8BD",
"*@	c #A7A7BC",
"=@	c #ABABBF",
"-@	c #E4E4EA",
";@	c #ACC4AF",
">@	c #97C096",
",@	c #5AB55B",
"'@	c #C5C6CA",
")@	c #D5D6DD",
"!@	c #E4E5E9",
"~@	c #ADAEC0",
"{@	c #A9AABD",
"]@	c #A9A9BD",
"^@	c #75757D",
"/@	c #ACACC0",
"(@	c #B0B0C3",
"_@	c #BBBBCC",
":@	c #EEEFF2",
"<@	c #BCD3BD",
"[@	c #A5C6A5",
"}@	c #C8CACA",
"|@	c #E2E3E9",
"1@	c #F0F0F4",
"2@	c #BEBECC",
"3@	c #B3B3C5",
"4@	c #AFAFC2",
"5@	c #75757F",
"6@	c #AAAAB6",
"7@	c #ADADC0",
"8@	c #B9B9CA",
"9@	c #B6B6C7",
"0@	c #BABAC9",
"a@	c #D4D4DD",
"b@	c #E5EAEA",
"c@	c #D1E1D3",
"d@	c #C2D5C4",
"e@	c #B3C6B2",
"f@	c #C6C8C7",
"g@	c #D8D9DC",
"h@	c #E8E9EF",
"i@	c #EFEFF4",
"j@	c #D5D5DF",
"k@	c #BDBDCC",
"l@	c #B9B9C9",
"m@	c #B4B4C5",
"n@	c #ABABB6",
"o@	c #90909E",
"p@	c #B1B1C4",
"q@	c #C1C1CE",
"r@	c #BFBFCD",
"s@	c #C3C3D0",
"t@	c #DADAE2",
"u@	c #E8EEEA",
"v@	c #DFE7E3",
"w@	c #DAE5DE",
"x@	c #D3DDD7",
"y@	c #D0D7D1",
"z@	c #D4D7D6",
"A@	c #DEDFE4",
"B@	c #E7E8ED",
"C@	c #EAEAF1",
"D@	c #F3F3F6",
"E@	c #DBDBE3",
"F@	c #C6C6D2",
"G@	c #C2C2CF",
"H@	c #C3C3D1",
"I@	c #BCBCCB",
"J@	c #B5B5C6",
"K@	c #91919E",
"L@	c #A1A1B5",
"M@	c #A0A0AF",
"N@	c #71717B",
"O@	c #C5C5D1",
"P@	c #C9C9D4",
"Q@	c #CCCCD7",
"R@	c #D5D5DD",
"S@	c #EDEFF1",
"T@	c #EDF2EF",
"U@	c #EAEFED",
"V@	c #E6EAEB",
"W@	c #E9EBEF",
"X@	c #EFF0F3",
"Y@	c #F4F4F7",
"Z@	c #D6D6DF",
"`@	c #CFCFD9",
" #	c #CBCBD6",
".#	c #CACAD4",
"+#	c #C7C7D3",
"@#	c #73737C",
"##	c #A4A4B1",
"$#	c #A5A5B7",
"%#	c #63636D",
"&#	c #666671",
"*#	c #626269",
"=#	c #D0D0D9",
"-#	c #D2D2DC",
";#	c #D2D2DB",
">#	c #D6D6DD",
",#	c #D9D9E0",
"'#	c #DDDDE2",
")#	c #E4E5E8",
"!#	c #EBECEE",
"~#	c #E5E5E9",
"{#	c #DEDEE4",
"]#	c #DBDBE1",
"^#	c #D8D8DF",
"/#	c #64646B",
"(#	c #686872",
"_#	c #64646F",
":#	c #8A8A8E",
"<#	c #D7D7DE",
"[#	c #DFDFE4",
"}#	c #E2E2E6",
"|#	c #E4E4E7",
"1#	c #E5E5E8",
"2#	c #E6E6E9",
"3#	c #E1E1E5",
"4#	c #DEDEE3",
"5#	c #E0E0E6",
"6#	c #DADAE1",
"7#	c #8C8C90",
"8#	c #C5C5CD",
"9#	c #DCDCE2",
"0#	c #EAEAEC",
"a#	c #ECECED",
"b#	c #EDEDEE",
"c#	c #EDEDEF",
"d#	c #EBEBEE",
"e#	c #E8E8EB",
"f#	c #E0E0E4",
"g#	c #C9C9CF",
"h#	c #A6A6AA",
"i#	c #DCDCE1",
"j#	c #DFDFE3",
"k#	c #5D5D5E",
"l#	c #747475",
"m#	c #A8A8A8",
"n#	c #E3E3E3",
"o#	c #F3F3F3",
"p#	c #A9A9A9",
"q#	c #757576",
"r#	c #5E5E5E",
"s#	c #E3E3E6",
"t#	c #A9A9AD",
"u#	c #86868C",
"v#	c #CDCDD3",
"w#	c #9D9D9F",
"x#	c #A3A3A3",
"y#	c #F0F0F0",
"z#	c #9F9FA1",
"A#	c #D1D1D6",
"B#	c #88888D",
"C#	c #99999C",
"D#	c #A6A6A6",
"E#	c #9C9C9D",
"                                                                ",
"                            . + + .                             ",
"                  @         # $ $ #         @                   ",
"              % & $ *       = $ $ =       * $ & %               ",
"              - ; > , ' ) ! ~ { ] ^ / ( _ : < [ -               ",
"                } | | 1 | 2 3 4 5 6 7 8 9 0 a b c         d     ",
"                e f f g h i j k l m n o p q r s t u   v w x     ",
"      y z     A B C D E F G H I J K L M k l m n o N O P Q R     ",
"      S T U V & W W X Y Z `  ...+.@.#.$.%.&.*.=.-.;.>.,.'.).    ",
"    !.~.~.~.~.~.~.{.].^./.(._.:.<.[.}.|.1.2.3.4.5.6.7.8.9.0.    ",
"      a.b.c.c.c.c.d.e.f.g.h.i.j.k.l.m.n.o.p.q.r.s.t.u.v.w.x.    ",
"        y.z.A.A.B.C.D.E.F.G.H.I.        J.K.L.M.N.O.P.Q.R.S.    ",
"        T.U.U.U.V.W.X.Y.Z.`. +            .+++@+#+$+%+&+*+=+    ",
"        -+b.b.;+>+,+'+)+!+~+{+            ]+^+/+(+_+:+<+[+}+    ",
"  |+1+z 2+3+3+4+5+6+7+8+<.9+0+            a+b+c+d+e+f+g+h+i+|+  ",
"  j+k+l+m+n+n+o+p+q+r+~+~+                  s+t+u+v+w+x+l+k+j+  ",
"  y+y+y+z+A+B+C+D+E+F+                      G+H+I+J+K+L+y+y+y+  ",
"  M+N+O+P+Q+y+R+S+T+U+                      V+W+X+Y+Q+P+O+N+M+  ",
"        Z+Q+y+Q+`+ @.@                    +@@@#@$@Y+Q+Z+        ",
"        %@&@*@=@-@;@>@,@                  '@)@!@~@{@]@%@        ",
"        ^@/@K+(@_@:@<@[@                }@|@1@2@3@(@4@5@        ",
"      6@(@7@8@9@0@a@b@c@d@e@        f@g@h@i@j@k@l@k@(@m@n@      ",
"    o@*@/@p@l@q@r@s@t@u@v@w@x@y@z@A@B@C@D@E@F@G@H@I@J@(@=@K@    ",
"      L@(@M@N@O@F@P@Q@R@S@T@U@V@W@X@Y@W Z@`@ #.#+#@###B+$#      ",
"      %#&#    *#=#-#;#>#,#'#)#!#!#~#{#]#^#R@R@w+/#    (#_#      ",
"                :#<#{#]#[#}#|#1#2#1#|#3#4#5#6#7#                ",
"                8#<#9#2#0#a#a#a#a#b#c#d#e#f#]#g#                ",
"              h#>#i#j#k#l#m#n#o#o#n#p#q#r#s#f#6#t#              ",
"              u#v#[#w#      x#y#y#x#      z#|#A#B#              ",
"                  C#        D#y#y#D#        E#                  ",
"                            m#y#y#m#                            ",
"                                                                "};
